<svg width="120" height="120" viewBox="0 0 120 120" fill="none" xmlns="http://www.w3.org/2000/svg">
<g clip-path="url(#clip0_2001_2)">
<path d="M51.8868 11.4659C47.5849 17.8041 42.6792 24.997 40.9811 27.4896L37.9245 32.0475H18.9811C6.07547 32.0475 0 32.1543 0 32.4036C0 32.6172 0.339623 33.2225 0.716981 33.7567C2.15094 35.6439 18.1887 59.2166 18.3774 59.6795C18.4906 59.9644 17.8868 61.1751 17.0566 62.4214C16.2264 63.632 12.1509 69.6498 7.96226 75.7745C3.77358 81.8635 0.264151 87.1335 0.150943 87.4184C-0.0377358 87.8813 1.77358 87.9525 15.1321 87.9525C23.5094 87.9525 30.9434 88.095 31.5849 88.273C32.2642 88.451 33.8113 88.6647 34.9811 88.7003C36.1887 88.7359 37.4717 88.8783 37.8868 88.9496C38.2642 89.0564 39.4717 90.4095 40.566 92.0119C41.6226 93.6142 43.9245 96.9614 45.6604 99.5252C47.3962 102.053 50.1887 106.148 51.8868 108.605C53.5472 111.062 56 114.623 57.3208 116.546C58.6415 118.433 59.8491 120 59.9623 120C60.2264 120 65.8491 111.917 77.1698 95.2166C79.2453 92.1543 81.283 89.4481 81.6981 89.1988C82.1132 88.9496 83.434 88.7359 84.6038 88.7003C85.7736 88.6647 87.283 88.4866 88 88.3086C88.6792 88.095 95.9623 87.9525 104.491 87.9525C119.358 87.9525 119.698 87.9525 119.509 87.276C119.434 86.8843 117.623 84.1068 115.585 81.1157C113.509 78.1246 110.075 73.1039 107.925 69.9703C105.811 66.8368 103.434 63.3472 102.604 62.2077L101.17 60.1068L102.981 57.4006C105.396 53.7329 110 47.0386 117.283 36.5341C118.792 34.3976 120 32.5104 120 32.3323C120 32.1899 111.472 32.0475 101.019 32.0475H82.0377L76.6038 24.1068C69.5849 13.8872 63.5472 5.02078 61.6604 2.24333C60.8679 0.997033 60.0755 0 59.9623 0C59.8113 0 56.1887 5.16321 51.8868 11.4659ZM63.7736 9.18695C65.7359 12.0712 68.4151 16.0237 69.7359 17.9822C73.8113 23.9644 74.9811 25.7092 77.1698 28.8427L79.2453 31.8694L60.1132 31.9763C49.6226 32.0119 40.9434 31.9763 40.8679 31.905C40.6792 31.727 59.6604 3.91692 59.9623 3.91692C60.0755 3.91692 61.8113 6.26707 63.7736 9.18695ZM60.7547 34.2908C60.7547 34.362 59.8491 35.7151 58.7925 37.2463C57.6981 38.8131 56.1887 41.2344 55.4717 42.6231C54.7547 44.0475 53.9623 45.1869 53.7736 45.1869C53.5472 45.2225 52.6038 44.4748 51.6981 43.5846C49.3208 41.27 43.6604 36.997 43.3962 37.3175C42.7547 37.9941 41.1321 47.7151 41.1321 50.635C41.1321 51.3828 41.0566 51.9881 40.9434 51.9881C40.8302 51.9881 39.8868 51.5964 38.8679 51.0979C36.9811 50.2077 30.5283 48.3561 27.6604 47.8932C26.1509 47.6795 26.0377 47.7151 26.0377 48.4985C26.0377 48.9258 26.4906 50.8487 27.0189 52.7003C27.5849 54.5519 28.0755 56.4036 28.1887 56.7952C28.3396 57.4718 28.1509 57.5074 24.0377 57.5786L19.7358 57.6498L18.6038 55.9763C17.9623 55.0504 14.566 50.0297 10.9811 44.7952C7.43396 39.5608 4.41509 35.0386 4.30189 34.7537C4.07547 34.2552 6.83019 34.184 32.4151 34.184C48 34.184 60.7547 34.2552 60.7547 34.2908ZM115.849 34.3976C115.849 34.5401 112.34 39.8101 108.038 46.1128L100.189 57.6142L95.7736 57.543C93.3208 57.543 91.3208 57.5074 91.3208 57.4718C91.3208 57.4362 91.5849 56.724 91.8868 55.905C92.717 53.6973 94.0755 48.0712 93.8491 47.822C93.3208 47.359 82.7547 50.1365 79.8868 51.5252C78.6038 52.1306 78.6038 52.2018 78.3019 47.359C78.1132 43.905 77.0566 38.3858 76.4528 37.4243C76.2642 37.1395 76.0377 37.1751 75.6226 37.4955C75.3208 37.7092 74.8679 38.1009 74.6038 38.2789C74.3396 38.4926 73.3208 39.2404 72.2642 39.9525C71.2453 40.6647 69.6981 41.911 68.8679 42.6944C68.0755 43.5133 67.2453 44.1543 67.0943 44.1543C66.9434 44.1543 66.1887 43.0148 65.4717 41.6617C64.717 40.273 63.4717 38.1009 62.6415 36.8546C61.8113 35.5727 61.1321 34.4332 61.1321 34.362C61.1321 34.2552 73.434 34.184 88.4906 34.184C103.547 34.184 115.849 34.2908 115.849 34.3976ZM63.8113 41.4125C64.4528 42.6231 65.0943 43.905 65.283 44.2255C65.8868 45.2225 65.7359 45.8279 64.6038 47.0742C64 47.7151 62.717 49.4243 61.6981 50.8487L59.8868 53.4481L58.3396 51.1691C57.4717 49.9585 56.4151 48.4629 55.9245 47.8932C55.3208 47.1454 55.1321 46.5757 55.283 45.9347C55.5472 44.9021 59.3962 38.2433 60.3019 37.2819C60.8302 36.7122 60.9434 36.7478 61.7736 37.9585C62.3019 38.635 63.2075 40.2018 63.8113 41.4125ZM49.2075 43.0148C50.0377 43.7982 51.3208 44.9733 52.0377 45.6855L53.283 46.9317L52.5283 49.2107C51.5094 52.2018 50.9434 54.5875 50.9434 55.7982C50.9434 57.7211 50.4906 57.7923 48.2264 56.1899C47.0566 55.3353 45.3585 54.2315 44.3774 53.6973L42.6415 52.7003V50.1365C42.6415 47.4303 43.0189 44.5816 43.7736 41.1632L44.1887 39.1691L45.9245 40.4154C46.8679 41.092 48.3396 42.2671 49.2075 43.0148ZM76.3774 42.6588C76.717 44.3679 77.0943 47.359 77.2453 49.2463C77.434 52.4154 77.3962 52.7003 76.7547 52.9139C75.8491 53.2344 71.9623 55.6914 71.1321 56.4748C70.6038 57.0089 70.4528 57.0089 70.1509 56.5816C69.9623 56.2967 69.8113 55.6558 69.8113 55.1217C69.8113 53.7685 69.1321 50.7774 68.2264 48.1068C67.3208 45.5074 66.9434 46.1484 71.8868 42.0534C73.5472 40.6647 75.0943 39.5252 75.3208 39.5252C75.5849 39.5252 76.0377 40.8783 76.3774 42.6588ZM67.5472 50.5994C67.9623 52.0593 68.3774 54.3739 68.5283 55.7982L68.7925 58.362L66.9811 60.2493C65.9623 61.2819 64.8302 62.6706 64.4151 63.3472L63.6226 64.5579L62.7925 61.2463C62.3019 59.4659 61.6604 57.2938 61.3208 56.4748C60.717 54.9436 60.717 54.9436 61.8868 53.0208C63.8491 49.8516 66.0755 47.2522 66.4906 47.6439C66.6792 47.822 67.1698 49.1751 67.5472 50.5994ZM56.3019 50.635C59.1321 54.3739 59.2453 54.8012 58.4151 56.8309C58.0377 57.7923 57.3962 59.9288 57.0189 61.5312L56.3774 64.5223L54.2264 61.816C52.3774 59.5015 52.0755 58.9317 52.0755 57.6142C52.1132 55.3353 53.8113 48.4273 54.3774 48.4273C54.5283 48.4273 55.3962 49.4243 56.3019 50.635ZM32.8302 50.457C35.7358 51.2404 40.1509 52.8427 40.8302 53.3769C41.0943 53.5905 42.2642 59.8932 42.0755 60.1068C42 60.178 40.5283 59.822 38.8302 59.3234C37.0943 58.8605 34.3774 58.2552 32.8302 58.0415C31.283 57.8279 30 57.6142 29.9623 57.5786C29.8113 57.4362 28.0377 51.5964 27.7358 50.2789C27.434 48.9258 27.0943 48.9258 32.8302 50.457ZM91.4717 52.5579C90.1132 57.4718 90 57.6142 87.9623 57.8635C86.4528 58.0771 81.2075 59.2522 78.5283 60.0356C77.6604 60.2849 77.6226 60.2493 77.8868 59.0742C78.0377 58.3976 78.2264 56.9377 78.3774 55.7626C78.566 53.9466 78.7547 53.6261 79.7736 53.0208C81.6226 51.9525 91.4717 49.0326 92.1132 49.3531C92.2642 49.4243 91.9623 50.8843 91.4717 52.5579ZM45.3962 55.8338C46.566 56.5816 48.1509 57.7567 48.9811 58.4688C50.3774 59.6795 50.4906 59.9288 50.717 62.3145C50.8679 63.7389 50.9434 64.9139 50.8679 64.9852C50.7547 65.092 46.2264 62.4214 44.3774 61.1751C43.434 60.4985 42.1509 54.4807 42.9811 54.4807C43.1321 54.4807 44.2264 55.0861 45.3962 55.8338ZM77.0943 55.2285C77.0566 55.5134 76.8302 56.8665 76.6038 58.2908L76.1509 60.8546L73.0943 62.635C71.3208 63.632 69.9623 64.2018 69.8868 63.9525C69.8491 63.7389 69.9245 62.457 70.0755 61.0682L70.3774 58.5757L73.3962 56.546C76.3396 54.5519 77.2453 54.2315 77.0943 55.2285ZM61.3208 60.9258C62.2642 64.5223 62.1887 67.0504 61.0943 69.8635C60.6038 71.181 60.1132 72.2849 60 72.2849C59.5472 72.2849 57.7358 66.9792 57.7358 65.6617C57.7358 64.0593 58.6415 59.7507 59.3208 58.2552C59.6981 57.3294 59.8113 57.2938 60.2264 57.8279C60.4906 58.184 60.9811 59.5727 61.3208 60.9258ZM28.8679 59.359C29.2075 59.6795 30.1132 61.1039 30.8302 62.5638C31.5472 63.9881 33.0566 66.3739 34.1509 67.8338C36.4151 70.7893 36.4906 70.5757 33.0189 71.003C32.1887 71.0742 31.0189 71.2522 30.3774 71.3947C29.283 71.6083 29.1698 71.4659 26.0377 66.908C24.2642 64.3086 22.3774 61.5312 21.8113 60.7478C21.2453 59.9644 20.9057 59.181 20.9811 59.0386C21.0943 58.8961 22.7547 58.7537 24.717 58.7537C27.5094 58.7537 28.3774 58.8605 28.8679 59.359ZM98.8679 59.2166C98.8679 59.4303 98.4528 60.178 97.9623 60.8546C97.4717 61.5668 95.5849 64.273 93.8113 66.908C90.5283 71.6439 90.5283 71.6439 89.3208 71.3947C88.6415 71.2878 87.434 71.0742 86.6038 71.003C85.7736 70.8961 84.717 70.7537 84.2642 70.6469L83.3962 70.5044L84.4528 69.4006C85.8868 67.8694 87.6604 65.1276 89.434 61.6736L90.9057 58.7181L94.9057 58.7893C97.4717 58.8249 98.8679 58.9674 98.8679 59.2166ZM34.6038 59.6439C37.7736 60.2136 41.8113 61.4599 42.4906 62.1009C42.717 62.3145 43.3585 63.5252 43.8868 64.8071C44.4528 66.089 45.5849 68.1543 46.4151 69.4362C47.2453 70.6825 47.8491 71.7507 47.8113 71.7863C47.7736 71.8576 47.0566 71.7151 46.2264 71.5371C45.3962 71.3234 43.2075 71.003 41.3208 70.7537L37.9623 70.3264L36.2264 68.2967C33.2453 64.8071 30.1509 59.1098 31.2453 59.1098C31.4717 59.1098 32.9811 59.359 34.6038 59.6439ZM88.8302 59.8932C88.4151 61.2107 86 65.1988 84.4906 67.1217C81.9623 70.362 81.9245 70.3976 79.0566 70.6469C77.6226 70.7893 75.8113 71.0386 75.0943 71.2166C74.3774 71.359 73.283 71.6083 72.717 71.7151L71.6604 71.9644L72.7547 70.4332C74.3774 68.1543 75.6226 65.911 76.4151 63.8101C77.0943 62.1009 77.283 61.9228 79.0943 61.2819C82 60.2493 86.1887 59.2878 88.2264 59.1454C88.9811 59.1098 89.0566 59.2166 88.8302 59.8932ZM68.3396 63.5964C68.0377 65.5549 67.7359 66.1602 66.5283 67.4065C65.7359 68.2255 64.6792 69.365 64.2264 69.9703L63.3585 71.0386L63.5094 68.8665C63.6604 67.2641 63.9623 66.2671 64.7547 65.1276C66.4528 62.635 68.4528 60.4273 68.6038 60.8546C68.6792 61.0682 68.566 62.2789 68.3396 63.5964ZM54.4151 64.2018C55.6604 65.9822 56 66.8368 56.1887 68.6528L56.4528 70.8961L54.6792 69.0089C52.9434 67.1573 52.0755 64.9852 52.0755 62.4214C52.0755 61.2463 52.566 61.638 54.4151 64.2018ZM23.3962 67.0148C25.1698 69.5786 26.6415 71.822 26.717 71.9644C26.7925 72.1424 26.3774 72.4629 25.7736 72.6409C21.4717 74.1721 12.0755 79.0148 12.0755 79.7626C12.0755 80.1543 16.2642 82.7537 19.4717 84.2493L22.3396 85.638L17.8113 85.7448C15.283 85.7804 11.1698 85.7804 8.60377 85.7448L3.92453 85.638L11.8868 73.9941C16.2264 67.5846 19.8868 62.3501 20 62.3501C20.1132 62.3501 21.6226 64.451 23.3962 67.0148ZM100.528 62.8487C100.642 63.1335 101.472 64.4866 102.377 65.8042C103.283 67.1217 105.434 70.2552 107.17 72.819C108.906 75.3472 111.547 79.2641 113.094 81.4362C114.604 83.6439 115.849 85.5312 115.849 85.638C115.849 85.7448 111.736 85.816 106.717 85.816L97.5472 85.7804L100.189 84.4629C103.698 82.6825 107.925 80.1187 107.925 79.7626C107.925 79.0861 98.9057 74.3858 95.2075 73.1751C94.1132 72.7834 93.2075 72.3561 93.2075 72.178C93.2075 71.7151 99.7359 62.3145 100.038 62.3145C100.189 62.3145 100.377 62.5638 100.528 62.8487ZM47.1698 64.3086C50.2642 66.2671 51.6226 67.5846 52.2642 69.4006C52.566 70.2908 53.2453 71.822 53.7358 72.819C54.2642 73.7804 54.6038 74.635 54.5283 74.7062C54.4528 74.7774 53.5472 74.3858 52.4906 73.816C50.2264 72.6409 47.8113 69.7567 45.8491 65.9466C45.1321 64.5223 44.5283 63.276 44.5283 63.1691C44.5283 62.8131 45.2453 63.0979 47.1698 64.3086ZM74.4906 64.8783C72.566 69.0089 69.6604 72.6766 67.4717 73.7448C66.6415 74.1365 65.8868 74.4214 65.8113 74.3145C65.7359 74.2433 66.0377 73.4599 66.566 72.6053C67.0566 71.7507 67.7736 70.2196 68.1132 69.2582C68.4906 68.2611 69.1698 67.1217 69.5849 66.6588C70.566 65.6261 74.7547 62.9555 75.0189 63.2047C75.1321 63.276 74.9057 64.0593 74.4906 64.8783ZM65.8113 71.2878C64.8302 73.0682 62.566 76.2374 62.3774 76.0593C62.1132 75.8101 63.9623 72.4629 65.1321 71.003C66.3396 69.5074 66.717 69.6498 65.8113 71.2878ZM56.1887 73.1395C57.7736 75.7389 57.6604 76.4866 56.0377 74.0653C54.8679 72.3205 54.4151 71.2166 54.8679 71.2166C54.9811 71.2166 55.5472 72.0712 56.1887 73.1395ZM40.1132 73.816C43.0189 76.1306 47.8491 78.5163 51.3208 79.3709C54.3019 80.0831 54.3774 80.4748 51.5094 80.4748C46.0755 80.4748 39.2075 78.5163 34.8302 75.7033C30.1887 72.7478 30.2264 72.819 32.8679 72.3205C36.717 71.6083 37.5472 71.7863 40.1132 73.816ZM43.8491 72.4273C46.9434 72.997 50.9434 74.3145 50.9434 74.7774C50.9434 74.9555 52.1509 75.9169 53.5849 76.9496C55.0566 77.9822 56.1887 78.8368 56.1132 78.908C55.7358 79.2641 49.8868 77.6973 47.3585 76.5935C44.4151 75.276 40.3774 72.7478 40.3774 72.178C40.3774 71.822 40.6415 71.8576 43.8491 72.4273ZM79.6226 72.178C79.6226 72.4985 74.4151 75.8101 72.6415 76.6647C70.566 77.6261 63.3962 79.3709 63.3962 78.908C63.3962 78.8012 63.8868 78.4807 64.4906 78.1958C65.0943 77.8754 66.4906 76.8427 67.6226 75.8813C69.7736 74.0297 72.4528 72.9258 76.3019 72.3205C78.9811 71.8932 79.6226 71.8932 79.6226 72.178ZM87.8491 72.4985C88.3019 72.6409 88.6792 72.819 88.6792 72.9614C88.6792 73.3887 84.3019 76.2018 81.6981 77.4481C80.2642 78.1246 77.6981 79.0148 76.0377 79.4065C72.3396 80.2967 66.0377 80.7953 66.0377 80.1899C66.0377 79.9407 66.3774 79.7626 66.7547 79.7626C67.9245 79.7626 72.7925 78.0178 75.283 76.7003C76.5283 76.0593 78.566 74.7062 79.8113 73.7448L82.0755 71.9288L84.5283 72.1068C85.8868 72.2136 87.3585 72.3917 87.8491 72.4985ZM35.8491 85.4599C35.8491 85.6736 33.9245 85.816 31.1321 85.816C26.4906 85.816 26.3774 85.7804 23.0189 84.4273C19.5472 83.0386 14.3396 80.2255 14.3396 79.7982C14.3396 79.2641 21.7358 75.5608 25.4717 74.2433L27.7358 73.4243L31.8113 79.2641C34.0377 82.5044 35.8491 85.2819 35.8491 85.4599ZM99.0566 76.1662C100.34 76.7359 102.34 77.7685 103.547 78.5163L105.698 79.8338L103.887 80.9021C102.906 81.5074 100.302 82.8249 98.1132 83.822L94.1509 85.638L88.9434 85.7448C84.5283 85.8516 83.7359 85.7804 84.0377 85.3531C84.1887 85.1039 86.1132 82.2908 88.2264 79.1573L92.1509 73.4243L94.4528 74.3145C95.7359 74.7774 97.8113 75.632 99.0566 76.1662ZM41.3962 80.1543C44.9811 81.3294 45.283 81.365 51.0566 81.365H57.0566L55.7736 82.362C53.0189 84.5697 46.7925 86.8843 42.0755 87.4184C40.2642 87.632 40.1509 87.5964 39.3962 86.457C36.2642 81.8635 32.4528 76.1306 32.4528 76.0237C32.4528 75.9525 33.6226 76.5935 35.0943 77.4125C36.5283 78.2671 39.3962 79.5134 41.3962 80.1543ZM86.9811 76.8071C86.6038 77.3056 85.9623 78.3027 85.5472 79.0148C85.0943 79.727 84.3774 80.7953 83.8868 81.4006C83.3962 82.0059 83.0189 82.6825 83.0189 82.8961C83.0189 83.1098 82.9057 83.3234 82.7547 83.3947C82.566 83.4303 81.8113 84.4273 81.0189 85.5312C79.9245 87.1691 79.3962 87.5964 78.6415 87.5964C76.7547 87.5964 72.2264 86.4214 69.434 85.2463C66.4906 83.9644 63.0189 81.9703 63.0189 81.5786C63.0189 81.4718 65.0943 81.4006 67.6604 81.4718C71.3962 81.5786 72.9811 81.4362 75.6226 80.8665C79.0943 80.0831 83.434 78.3383 85.8868 76.7715C87.6981 75.632 87.7736 75.632 86.9811 76.8071ZM61.2453 81.9347C64.6415 84.9614 71.5472 87.9881 76.4151 88.5223C77.5472 88.6647 78.4906 88.8783 78.4906 89.0208C78.4906 89.27 73.8868 96.1424 66.0377 107.537C63.6981 110.955 61.3585 114.374 60.8679 115.122L59.9623 116.51L57.4717 112.807C56.1132 110.777 53.7358 107.288 52.1509 105.045C50.6038 102.801 48.4528 99.6677 47.3585 98.1009C46.3019 96.5341 44.5283 93.9703 43.4717 92.4036C42.3774 90.8724 41.5094 89.4125 41.5094 89.1988C41.5094 89.0208 43.0189 88.5579 44.9057 88.2374C49.8113 87.3116 56.6038 84.1424 59.0189 81.5786C59.434 81.1869 59.8113 80.8309 59.8868 80.8309C59.9623 80.8309 60.566 81.3294 61.2453 81.9347Z" fill="#B131D0"/>
</g>
<defs>
<clipPath id="clip0_2001_2">
<rect width="120" height="120" fill="white"/>
</clipPath>
</defs>
</svg>
